<svg xmlns="http://www.w3.org/2000/svg" viewBox="0 0 512 512" width="512" height="512">
  <defs>
    <linearGradient id="g" x1="0" y1="0" x2="1" y2="1">
      <stop offset="0" stop-color="#3b82f6"/>
      <stop offset="1" stop-color="#22c55e"/>
    </linearGradient>
    <filter id="soft" x="-20%" y="-20%" width="140%" height="140%">
      <feGaussianBlur stdDeviation="10" result="b"/>
      <feColorMatrix in="b" type="matrix" values="
        1 0 0 0 0
        0 1 0 0 0
        0 0 1 0 0
        0 0 0 0.35 0" result="s"/>
      <feMerge>
        <feMergeNode in="s"/>
        <feMergeNode in="SourceGraphic"/>
      </feMerge>
    </filter>
  </defs>

  <rect width="512" height="512" rx="96" fill="#0f1419"/>
  <g filter="url(#soft)">
    <path d="M96 320C160 220 216 260 272 184C312 130 360 130 416 192" fill="none" stroke="url(#g)" stroke-width="28" stroke-linecap="round" stroke-linejoin="round"/>
    <path d="M120 356C176 292 220 340 264 292C312 240 360 252 392 284" fill="none" stroke="rgba(255,255,255,0.22)" stroke-width="18" stroke-linecap="round" stroke-linejoin="round"/>
    <circle cx="96" cy="320" r="16" fill="#3b82f6"/>
    <circle cx="272" cy="184" r="16" fill="#60a5fa"/>
    <circle cx="416" cy="192" r="16" fill="#22c55e"/>
  </g>

  <g fill="rgba(232,234,237,0.92)">
    <path d="M164 168h30v176h-30z"/>
    <path d="M226 212h30v132h-30z"/>
    <path d="M288 244h30v100h-30z"/>
  </g>
</svg>

